<?xml version="1.0" encoding="UTF-8"?>
<svg width="595.281pt" version="1.1" xmlns="http://www.w3.org/2000/svg" height="841.89pt" viewBox="0 0 595.281 841.89" xmlns:xlink="http://www.w3.org/1999/xlink">
 <defs>
  <clipPath id="Clip0">
   <path d="M0 0 L53.398 0 L53.398 65.1969 L0 65.1969 L0 0 Z" transform="translate(127.559, 158.74)"/>
  </clipPath>
  <clipPath id="Clip1">
   <path d="M0 0 L53.398 0 L53.398 65.1969 L0 65.1969 L0 0 Z" transform="translate(127.559, 158.74)"/>
  </clipPath>
  <clipPath id="Clip2">
   <path d="M0 0 L53.398 0 L53.398 36.038 L0 36.038 L0 0 Z" transform="translate(127.559, 181.452)"/>
  </clipPath>
  <clipPath id="Clip3">
   <path d="M0 0 L15.1732 0 L15.1732 74.7008 L0 74.7008 L0 0 Z" transform="translate(182.335, 153.988)"/>
  </clipPath>
  <path id="GlArialMT45" d="M0.317344 7.85156 L0.317344 6.96781 L3.01766 6.96781 L3.01766 7.85156 L0.317344 7.85156 Z"/>
  <path id="GlArial-BoldMT72" d="M0.7325 10 L0.7325 2.84172 L2.17781 2.84172 L2.17781 5.65922 L5.00984 5.65922 L5.00984 2.84172 L6.45516 2.84172 L6.45516 10 L5.00984 10 L5.00984 6.87016 L2.17781 6.87016 L2.17781 10 L0.7325 10 Z"/>
  <path id="GlArial-BoldMT65" d="M7.18266 10 L5.61031 10 L4.98531 8.37406 L2.12406 8.37406 L1.53328 10 L0 10 L2.78812 2.84172 L4.31641 2.84172 L7.18266 10 L7.18266 10 Z M4.52156 7.16797 L3.53516 4.51172 L2.56844 7.16797 L4.52156 7.16797 Z"/>
  <path id="GlArial-BoldMT85" d="M0.717812 2.84172 L2.16312 2.84172 L2.16312 6.71875 C2.16312 6.71875 2.16312 7.64156 2.21687 7.915 C2.21687 7.915 2.30953 8.35453 2.65859 8.62063 C2.65859 8.62063 3.00781 8.88672 3.61328 8.88672 C3.61328 8.88672 4.22859 8.88672 4.54109 8.63531 C4.54109 8.63531 4.85359 8.38375 4.91703 8.01766 C4.91703 8.01766 4.98047 7.65141 4.98047 6.80172 L4.98047 2.84172 L6.42578 2.84172 L6.42578 6.60156 C6.42578 6.60156 6.42578 7.89062 6.30859 8.42281 C6.30859 8.42281 6.19141 8.955 5.87641 9.32125 C5.87641 9.32125 5.56156 9.6875 5.03422 9.90484 C5.03422 9.90484 4.50687 10.122 3.65719 10.122 C3.65719 10.122 2.63187 10.122 2.10203 9.88531 C2.10203 9.88531 1.57234 9.64844 1.26469 9.27 C1.26469 9.27 0.957031 8.89156 0.859375 8.47656 C0.859375 8.47656 0.717812 7.86125 0.717812 6.66016 L0.717812 2.84172 Z"/>
  <path id="GlArial-BoldMT77" d="M0.707969 10 L0.707969 2.84172 L2.87109 2.84172 L4.17 7.72453 L5.45406 2.84172 L7.62203 2.84172 L7.62203 10 L6.27937 10 L6.27937 4.36516 L4.85844 10 L3.46687 10 L2.05078 4.36516 L2.05078 10 L0.707969 10 Z"/>
  <path id="GlArialMT72" d="M0.800781 10 L0.800781 2.84172 L1.74812 2.84172 L1.74812 5.78125 L5.46875 5.78125 L5.46875 2.84172 L6.41609 2.84172 L6.41609 10 L5.46875 10 L5.46875 6.62594 L1.74812 6.62594 L1.74812 10 L0.800781 10 Z"/>
  <path id="GlArialMT97" d="M4.04297 9.36031 C4.04297 9.36031 3.55469 9.77531 3.10297 9.94625 C3.10297 9.94625 2.65141 10.1172 2.13375 10.1172 C2.13375 10.1172 1.27937 10.1172 0.820312 9.69969 C0.820312 9.69969 0.361406 9.28219 0.361406 8.63281 C0.361406 8.63281 0.361406 8.25188 0.534687 7.93703 C0.534687 7.93703 0.707969 7.62203 0.98875 7.43172 C0.98875 7.43172 1.26953 7.24125 1.62109 7.14359 C1.62109 7.14359 1.87984 7.07516 2.40234 7.01172 C2.40234 7.01172 3.46687 6.88469 3.96969 6.70891 C3.96969 6.70891 3.97469 6.52828 3.97469 6.47953 C3.97469 6.47953 3.97469 5.94234 3.72562 5.72266 C3.72562 5.72266 3.38875 5.42484 2.72469 5.42484 C2.72469 5.42484 2.10453 5.42484 1.80906 5.64219 C1.80906 5.64219 1.51375 5.85938 1.37203 6.41109 L0.512656 6.29391 C0.512656 6.29391 0.629844 5.74219 0.898438 5.40281 C0.898438 5.40281 1.16703 5.06344 1.67484 4.88031 C1.67484 4.88031 2.18266 4.69719 2.85156 4.69719 C2.85156 4.69719 3.51562 4.69719 3.93063 4.85344 C3.93063 4.85344 4.34578 5.00969 4.54109 5.24656 C4.54109 5.24656 4.73641 5.48344 4.81453 5.84469 C4.81453 5.84469 4.85844 6.06937 4.85844 6.65531 L4.85844 7.82719 C4.85844 7.82719 4.85844 9.05266 4.91453 9.3775 C4.91453 9.3775 4.97078 9.70219 5.13672 10 L4.21875 10 C4.21875 10 4.08203 9.72656 4.04297 9.36031 L4.04297 9.36031 Z M3.96969 7.3975 C3.96969 7.3975 3.49125 7.59281 2.53422 7.72953 C2.53422 7.72953 1.99219 7.80766 1.7675 7.90531 C1.7675 7.90531 1.54297 8.00297 1.42094 8.19094 C1.42094 8.19094 1.29891 8.37891 1.29891 8.60844 C1.29891 8.60844 1.29891 8.96 1.565 9.19438 C1.565 9.19438 1.83109 9.42875 2.34375 9.42875 C2.34375 9.42875 2.85156 9.42875 3.24703 9.20656 C3.24703 9.20656 3.64266 8.98438 3.82812 8.59859 C3.82812 8.59859 3.96969 8.30078 3.96969 7.71969 L3.96969 7.3975 Z"/>
  <path id="GlArialMT99" d="M4.04297 8.10063 L4.90719 8.21281 C4.90719 8.21281 4.76562 9.10641 4.18203 9.61187 C4.18203 9.61187 3.59859 10.1172 2.74906 10.1172 C2.74906 10.1172 1.68453 10.1172 1.0375 9.42141 C1.0375 9.42141 0.390625 8.72563 0.390625 7.42672 C0.390625 7.42672 0.390625 6.58688 0.668906 5.95703 C0.668906 5.95703 0.947344 5.32719 1.51609 5.01219 C1.51609 5.01219 2.085 4.69719 2.75391 4.69719 C2.75391 4.69719 3.59859 4.69719 4.13563 5.12453 C4.13563 5.12453 4.67281 5.55172 4.82422 6.33781 L3.96969 6.46969 C3.96969 6.46969 3.84766 5.94719 3.5375 5.68359 C3.5375 5.68359 3.2275 5.41984 2.78812 5.41984 C2.78812 5.41984 2.12406 5.41984 1.70891 5.89594 C1.70891 5.89594 1.29391 6.37203 1.29391 7.40234 C1.29391 7.40234 1.29391 8.44719 1.69422 8.92094 C1.69422 8.92094 2.09469 9.39453 2.73922 9.39453 C2.73922 9.39453 3.25687 9.39453 3.60344 9.07719 C3.60344 9.07719 3.95016 8.75969 4.04297 8.10063 Z"/>
  <path id="GlArialMT107" d="M0.664062 10 L0.664062 2.84172 L1.54297 2.84172 L1.54297 6.92375 L3.62312 4.81438 L4.76078 4.81438 L2.77828 6.73828 L4.96094 10 L3.87703 10 L2.16312 7.34859 L1.54297 7.94437 L1.54297 10 L0.664062 10 Z"/>
  <path id="GlArialMT101" d="M4.20906 8.33 L5.11719 8.44234 C5.11719 8.44234 4.90234 9.23828 4.32125 9.67781 C4.32125 9.67781 3.74031 10.1172 2.83688 10.1172 C2.83688 10.1172 1.69922 10.1172 1.03266 9.41656 C1.03266 9.41656 0.36625 8.71578 0.36625 7.45109 C0.36625 7.45109 0.36625 6.1425 1.04 5.41984 C1.04 5.41984 1.71391 4.69719 2.78812 4.69719 C2.78812 4.69719 3.82812 4.69719 4.48734 5.40531 C4.48734 5.40531 5.14656 6.11328 5.14656 7.3975 C5.14656 7.3975 5.14656 7.47562 5.14156 7.63187 L1.27438 7.63187 C1.27438 7.63187 1.32328 8.48625 1.75781 8.94047 C1.75781 8.94047 2.19234 9.39453 2.84187 9.39453 C2.84187 9.39453 3.32516 9.39453 3.66688 9.14062 C3.66688 9.14062 4.00875 8.88672 4.20906 8.33 L4.20906 8.33 Z M1.32328 6.90922 L4.21875 6.90922 C4.21875 6.90922 4.16016 6.25484 3.88672 5.92766 C3.88672 5.92766 3.46687 5.41984 2.79781 5.41984 C2.79781 5.41984 2.19234 5.41984 1.77969 5.82516 C1.77969 5.82516 1.36719 6.23047 1.32328 6.90922 Z"/>
  <path id="GlArialMT114" d="M0.649375 10 L0.649375 4.81438 L1.44047 4.81438 L1.44047 5.60062 C1.44047 5.60062 1.74313 5.04875 1.99953 4.87297 C1.99953 4.87297 2.25594 4.69719 2.56344 4.69719 C2.56344 4.69719 3.00781 4.69719 3.46687 4.98047 L3.16406 5.79594 C3.16406 5.79594 2.84187 5.60547 2.51953 5.60547 C2.51953 5.60547 2.23141 5.60547 2.00188 5.77891 C2.00188 5.77891 1.7725 5.95219 1.67484 6.25969 C1.67484 6.25969 1.52828 6.72844 1.52828 7.28516 L1.52828 10 L0.649375 10 Z"/>
  <path id="GlArialMT115" d="M0.307656 8.45219 L1.17672 8.31547 C1.17672 8.31547 1.25 8.83781 1.58438 9.11625 C1.58438 9.11625 1.91891 9.39453 2.51953 9.39453 C2.51953 9.39453 3.125 9.39453 3.41797 9.14797 C3.41797 9.14797 3.71094 8.90141 3.71094 8.56938 C3.71094 8.56938 3.71094 8.27141 3.45219 8.10063 C3.45219 8.10063 3.27156 7.98344 2.55375 7.80266 C2.55375 7.80266 1.58688 7.55859 1.21328 7.38047 C1.21328 7.38047 0.839844 7.20219 0.646875 6.88719 C0.646875 6.88719 0.454063 6.57219 0.454063 6.19141 C0.454063 6.19141 0.454063 5.84469 0.612812 5.54937 C0.612812 5.54937 0.771563 5.25391 1.045 5.05859 C1.045 5.05859 1.25 4.90719 1.60391 4.80219 C1.60391 4.80219 1.95797 4.69719 2.36328 4.69719 C2.36328 4.69719 2.97359 4.69719 3.435 4.87297 C3.435 4.87297 3.89656 5.04875 4.11625 5.34906 C4.11625 5.34906 4.33594 5.64938 4.41891 6.15234 L3.55953 6.26953 C3.55953 6.26953 3.50094 5.86906 3.22016 5.64453 C3.22016 5.64453 2.93953 5.41984 2.42672 5.41984 C2.42672 5.41984 1.82125 5.41984 1.5625 5.62016 C1.5625 5.62016 1.30375 5.82031 1.30375 6.08891 C1.30375 6.08891 1.30375 6.25969 1.41109 6.39641 C1.41109 6.39641 1.51859 6.53812 1.74812 6.63078 C1.74812 6.63078 1.87984 6.67969 2.52438 6.85547 C2.52438 6.85547 3.45703 7.10453 3.82563 7.26328 C3.82563 7.26328 4.19437 7.42188 4.40422 7.72469 C4.40422 7.72469 4.61422 8.02734 4.61422 8.47656 C4.61422 8.47656 4.61422 8.91594 4.35781 9.30422 C4.35781 9.30422 4.10156 9.69234 3.61813 9.90484 C3.61813 9.90484 3.13484 10.1172 2.52438 10.1172 C2.52438 10.1172 1.51375 10.1172 0.983906 9.69734 C0.983906 9.69734 0.454063 9.27734 0.307656 8.45219 Z"/>
  <path id="GlArialMT112" d="M0.659219 11.9873 L0.659219 4.81438 L1.46 4.81438 L1.46 5.48828 C1.46 5.48828 1.74313 5.09281 2.09953 4.895 C2.09953 4.895 2.45609 4.69719 2.96391 4.69719 C2.96391 4.69719 3.62797 4.69719 4.13578 5.03906 C4.13578 5.03906 4.64359 5.38078 4.90234 6.00344 C4.90234 6.00344 5.16109 6.62594 5.16109 7.36813 C5.16109 7.36813 5.16109 8.16406 4.87547 8.80125 C4.87547 8.80125 4.58984 9.43844 4.04531 9.77781 C4.04531 9.77781 3.50094 10.1172 2.90047 10.1172 C2.90047 10.1172 2.46094 10.1172 2.11172 9.93172 C2.11172 9.93172 1.76266 9.74609 1.53812 9.46281 L1.53812 11.9873 L0.659219 11.9873 L0.659219 11.9873 Z M1.45516 7.43656 C1.45516 7.43656 1.45516 8.4375 1.86031 8.91609 C1.86031 8.91609 2.26562 9.39453 2.84187 9.39453 C2.84187 9.39453 3.42781 9.39453 3.84516 8.89891 C3.84516 8.89891 4.26266 8.40328 4.26266 7.36328 C4.26266 7.36328 4.26266 6.37203 3.855 5.87891 C3.855 5.87891 3.44734 5.38578 2.88094 5.38578 C2.88094 5.38578 2.31937 5.38578 1.88719 5.91062 C1.88719 5.91062 1.45516 6.43547 1.45516 7.43656 Z"/>
  <path id="GlArialMT117" d="M4.05766 10 L4.05766 9.23828 C4.05766 9.23828 3.45219 10.1172 2.41219 10.1172 C2.41219 10.1172 1.95312 10.1172 1.55516 9.94141 C1.55516 9.94141 1.15719 9.76562 0.964375 9.49953 C0.964375 9.49953 0.771563 9.23344 0.693438 8.84766 C0.693438 8.84766 0.639687 8.58891 0.639687 8.02734 L0.639687 4.81438 L1.51859 4.81438 L1.51859 7.69047 C1.51859 7.69047 1.51859 8.37891 1.57234 8.61812 C1.57234 8.61812 1.65531 8.96484 1.92375 9.16266 C1.92375 9.16266 2.19234 9.36031 2.58797 9.36031 C2.58797 9.36031 2.98344 9.36031 3.33 9.15766 C3.33 9.15766 3.67672 8.955 3.82078 8.60594 C3.82078 8.60594 3.96484 8.25688 3.96484 7.59281 L3.96484 4.81438 L4.84375 4.81438 L4.84375 10 L4.05766 10 Z"/>
  <path id="GlArialMT77" d="M0.742188 10 L0.742188 2.84172 L2.16797 2.84172 L3.86234 7.91016 C3.86234 7.91016 4.09672 8.61812 4.20406 8.96969 C4.20406 8.96969 4.32625 8.57906 4.585 7.82219 L6.29891 2.84172 L7.57328 2.84172 L7.57328 10 L6.66016 10 L6.66016 4.00875 L4.58016 10 L3.72562 10 L1.65531 3.90625 L1.65531 10 L0.742188 10 Z"/>
  <path id="GlArialMT110" d="M0.659219 10 L0.659219 4.81438 L1.45016 4.81438 L1.45016 5.55172 C1.45016 5.55172 2.02156 4.69719 3.10062 4.69719 C3.10062 4.69719 3.56937 4.69719 3.96234 4.86578 C3.96234 4.86578 4.35547 5.03422 4.55078 5.30766 C4.55078 5.30766 4.74609 5.58109 4.82422 5.95703 C4.82422 5.95703 4.87312 6.20109 4.87312 6.81156 L4.87312 10 L3.99422 10 L3.99422 6.84563 C3.99422 6.84563 3.99422 6.30859 3.89156 6.0425 C3.89156 6.0425 3.78906 5.77641 3.52781 5.61766 C3.52781 5.61766 3.26656 5.45891 2.915 5.45891 C2.915 5.45891 2.35359 5.45891 1.94578 5.81547 C1.94578 5.81547 1.53812 6.17188 1.53812 7.16797 L1.53812 10 L0.659219 10 Z"/>
 </defs>
 <g id="Fond de page">
  <path style="fill:none;stroke:#161413; stroke-width:1; stroke-linecap:butt; stroke-linejoin:miter; stroke-dasharray:none;" d="M113.386 56.693 C113.386 88.0048 88.0048 113.386 56.693 113.386 C25.3823 113.386 0 88.0048 0 56.693 C0 25.3823 25.3823 0 56.693 0 C88.0048 0 113.386 25.3823 113.386 56.693 Z" transform="translate(226.772, 249.449) rotate(-180)"/>
  <path style="fill:none;stroke:#161413; stroke-width:1; stroke-linecap:butt; stroke-linejoin:miter; stroke-dasharray:none;" d="M133.228 66.6142 C133.228 103.405 103.405 133.228 66.6142 133.228 C29.8242 133.228 0 103.405 0 66.6142 C0 29.8242 29.8242 0 66.6142 0 C103.405 0 133.228 29.8242 133.228 66.6142 Z" transform="translate(236.693, 259.37) rotate(-180)"/>
  <path style="fill:none;stroke:#161413; stroke-width:1; stroke-linecap:butt; stroke-linejoin:miter; stroke-dasharray:none;" d="M113.386 56.6929 C113.386 88.0047 88.0047 113.386 56.6929 113.386 C25.3823 113.386 0 88.0047 0 56.6929 C0 25.3823 25.3823 0 56.6929 0 C88.0047 0 113.386 25.3823 113.386 56.6929 Z" transform="translate(226.772, 249.449) rotate(-180)"/>
  <g id="Groupe 8" clip-path="url(#Clip0)">
   <g id="Groupe 7" clip-path="url(#Clip1)">
    <path style="stroke:#161413; stroke-width:5.66929; stroke-linecap:butt; stroke-linejoin:miter; stroke-dasharray:none;" d="M 0 0 L 17.0079 0" transform="translate(151.709, 175.748) rotate(-90)"/>
    <path style="stroke:#161413; stroke-width:5.66929; stroke-linecap:butt; stroke-linejoin:miter; stroke-dasharray:none;" d="M 0 0 L 17.0079 0" transform="translate(151.709, 223.937) rotate(-90)"/>
    <g id="Groupe 6" clip-path="url(#Clip2)">
     <path style="stroke:#161413; stroke-width:5.66929; stroke-linecap:butt; stroke-linejoin:miter; stroke-dasharray:none;" d="M 0 0 L 39.685 0" transform="translate(132.87, 206.823) rotate(-360)"/>
     <path style="stroke:#ffffff; stroke-width:5.66929; stroke-linecap:butt; stroke-linejoin:miter; stroke-dasharray:none;" d="M 0 0 L 34.0157 0" transform="translate(127.559, 215.094) rotate(-65)"/>
     <path style="stroke:#ffffff; stroke-width:5.66929; stroke-linecap:butt; stroke-linejoin:miter; stroke-dasharray:none;" d="M 0 0 L 34.0157 0" transform="translate(175.819, 214.677) rotate(-115)"/>
    </g>
    <path style="stroke:#161413; stroke-width:5.66929; stroke-linecap:butt; stroke-linejoin:miter; stroke-dasharray:none;" d="M 0 0 L 34.0157 0" transform="translate(138.047, 205.74) rotate(-65)"/>
    <path style="stroke:#161413; stroke-width:5.66929; stroke-linecap:butt; stroke-linejoin:miter; stroke-dasharray:none;" d="M 0 0 L 34.0157 0" transform="translate(165.614, 206.173) rotate(-115)"/>
   </g>
   <path style="stroke:#161413; stroke-width:5.66929; stroke-linecap:butt; stroke-linejoin:miter; stroke-dasharray:none;" d="M 0 0 L 36.8504 0" transform="translate(133.047, 174.74) rotate(-360)"/>
  </g>
  <g id="Groupe 9" clip-path="url(#Clip3)">
   <path style="fill:#161413; fill-rule:evenodd;stroke:#161413; stroke-width:1; stroke-linecap:butt; stroke-linejoin:miter; stroke-dasharray:none;" d="M2.83465 1.41732 C2.83465 2.20012 2.20012 2.83465 1.41732 2.83465 C0.634557 2.83465 0 2.20012 0 1.41732 C0 0.634557 0.634557 0 1.41732 0 C2.20012 0 2.83465 0.634557 2.83465 1.41732 Z" transform="translate(182.835, 154.488)"/>
   <path style="fill:#161413; fill-rule:evenodd;stroke:#161413; stroke-width:1; stroke-linecap:butt; stroke-linejoin:miter; stroke-dasharray:none;" d="M2.83465 1.41732 C2.83465 2.20012 2.20012 2.83465 1.41732 2.83465 C0.634557 2.83465 0 2.20012 0 1.41732 C0 0.634557 0.634557 0 1.41732 0 C2.20012 0 2.83465 0.634557 2.83465 1.41732 Z" transform="translate(182.835, 165.827)"/>
   <path style="fill:#161413; fill-rule:evenodd;stroke:#161413; stroke-width:1; stroke-linecap:butt; stroke-linejoin:miter; stroke-dasharray:none;" d="M2.83465 1.41732 C2.83465 2.20012 2.20012 2.83465 1.41732 2.83465 C0.634557 2.83465 0 2.20012 0 1.41732 C0 0.634557 0.634557 0 1.41732 0 C2.20012 0 2.83465 0.634557 2.83465 1.41732 Z" transform="translate(188.504, 154.488)"/>
   <path style="fill:#161413; fill-rule:evenodd;stroke:#161413; stroke-width:1; stroke-linecap:butt; stroke-linejoin:miter; stroke-dasharray:none;" d="M2.83465 1.41732 C2.83465 2.20012 2.20012 2.83465 1.41732 2.83465 C0.634557 2.83465 0 2.20012 0 1.41732 C0 0.634557 0.634557 0 1.41732 0 C2.20012 0 2.83465 0.634557 2.83465 1.41732 Z" transform="translate(182.835, 174.331)"/>
   <path style="fill:#161413; fill-rule:evenodd;stroke:#161413; stroke-width:1; stroke-linecap:butt; stroke-linejoin:miter; stroke-dasharray:none;" d="M2.83465 1.41732 C2.83465 2.20012 2.20012 2.83465 1.41732 2.83465 C0.634557 2.83465 0 2.20012 0 1.41732 C0 0.634557 0.634557 0 1.41732 0 C2.20012 0 2.83465 0.634557 2.83465 1.41732 Z" transform="translate(182.835, 185.669)"/>
   <path style="fill:#161413; fill-rule:evenodd;stroke:#161413; stroke-width:1; stroke-linecap:butt; stroke-linejoin:miter; stroke-dasharray:none;" d="M2.83465 1.41732 C2.83465 2.20012 2.20012 2.83465 1.41732 2.83465 C0.634557 2.83465 0 2.20012 0 1.41732 C0 0.634557 0.634557 0 1.41732 0 C2.20012 0 2.83465 0.634557 2.83465 1.41732 Z" transform="translate(182.835, 194.173)"/>
   <path style="fill:#161413; fill-rule:evenodd;stroke:#161413; stroke-width:1; stroke-linecap:butt; stroke-linejoin:miter; stroke-dasharray:none;" d="M2.83465 1.41732 C2.83465 2.20012 2.20012 2.83465 1.41732 2.83465 C0.634557 2.83465 0 2.20012 0 1.41732 C0 0.634557 0.634557 0 1.41732 0 C2.20012 0 2.83465 0.634557 2.83465 1.41732 Z" transform="translate(182.835, 205.512)"/>
   <path style="fill:#161413; fill-rule:evenodd;stroke:#161413; stroke-width:1; stroke-linecap:butt; stroke-linejoin:miter; stroke-dasharray:none;" d="M2.83465 1.41732 C2.83465 2.20012 2.20012 2.83465 1.41732 2.83465 C0.634557 2.83465 0 2.20012 0 1.41732 C0 0.634557 0.634557 0 1.41732 0 C2.20012 0 2.83465 0.634557 2.83465 1.41732 Z" transform="translate(182.835, 214.016)"/>
   <path style="fill:#161413; fill-rule:evenodd;stroke:#161413; stroke-width:1; stroke-linecap:butt; stroke-linejoin:miter; stroke-dasharray:none;" d="M2.83465 1.41732 C2.83465 2.20012 2.20012 2.83465 1.41732 2.83465 C0.634557 2.83465 0 2.20012 0 1.41732 C0 0.634557 0.634557 0 1.41732 0 C2.20012 0 2.83465 0.634557 2.83465 1.41732 Z" transform="translate(182.835, 225.354)"/>
   <path style="fill:#161413; fill-rule:evenodd;stroke:#161413; stroke-width:1; stroke-linecap:butt; stroke-linejoin:miter; stroke-dasharray:none;" d="M2.83465 1.41732 C2.83465 2.20012 2.20012 2.83465 1.41732 2.83465 C0.634557 2.83465 0 2.20012 0 1.41732 C0 0.634557 0.634557 0 1.41732 0 C2.20012 0 2.83465 0.634557 2.83465 1.41732 Z" transform="translate(188.504, 160.157)"/>
   <path style="fill:#161413; fill-rule:evenodd;stroke:#161413; stroke-width:1; stroke-linecap:butt; stroke-linejoin:miter; stroke-dasharray:none;" d="M2.83465 1.41732 C2.83465 2.20012 2.20012 2.83465 1.41732 2.83465 C0.634557 2.83465 0 2.20012 0 1.41732 C0 0.634557 0.634557 0 1.41732 0 C2.20012 0 2.83465 0.634557 2.83465 1.41732 Z" transform="translate(194.173, 160.157)"/>
   <path style="fill:#161413; fill-rule:evenodd;stroke:#161413; stroke-width:1; stroke-linecap:butt; stroke-linejoin:miter; stroke-dasharray:none;" d="M2.83465 1.41732 C2.83465 2.20012 2.20012 2.83465 1.41732 2.83465 C0.634557 2.83465 0 2.20012 0 1.41732 C0 0.634557 0.634557 0 1.41732 0 C2.20012 0 2.83465 0.634557 2.83465 1.41732 Z" transform="translate(188.504, 174.331)"/>
   <path style="fill:#161413; fill-rule:evenodd;stroke:#161413; stroke-width:1; stroke-linecap:butt; stroke-linejoin:miter; stroke-dasharray:none;" d="M2.83465 1.41732 C2.83465 2.20012 2.20012 2.83465 1.41732 2.83465 C0.634557 2.83465 0 2.20012 0 1.41732 C0 0.634557 0.634557 0 1.41732 0 C2.20012 0 2.83465 0.634557 2.83465 1.41732 Z" transform="translate(188.504, 194.173)"/>
   <path style="fill:#161413; fill-rule:evenodd;stroke:#161413; stroke-width:1; stroke-linecap:butt; stroke-linejoin:miter; stroke-dasharray:none;" d="M2.83465 1.41732 C2.83465 2.20012 2.20012 2.83465 1.41732 2.83465 C0.634557 2.83465 0 2.20012 0 1.41732 C0 0.634557 0.634557 0 1.41732 0 C2.20012 0 2.83465 0.634557 2.83465 1.41732 Z" transform="translate(188.504, 205.512)"/>
   <path style="fill:#161413; fill-rule:evenodd;stroke:#161413; stroke-width:1; stroke-linecap:butt; stroke-linejoin:miter; stroke-dasharray:none;" d="M2.83465 1.41732 C2.83465 2.20012 2.20012 2.83465 1.41732 2.83465 C0.634557 2.83465 0 2.20012 0 1.41732 C0 0.634557 0.634557 0 1.41732 0 C2.20012 0 2.83465 0.634557 2.83465 1.41732 Z" transform="translate(194.173, 205.512)"/>
   <path style="fill:#161413; fill-rule:evenodd;stroke:#161413; stroke-width:1; stroke-linecap:butt; stroke-linejoin:miter; stroke-dasharray:none;" d="M2.83465 1.41732 C2.83465 2.20012 2.20012 2.83465 1.41732 2.83465 C0.634557 2.83465 0 2.20012 0 1.41732 C0 0.634557 0.634557 0 1.41732 0 C2.20012 0 2.83465 0.634557 2.83465 1.41732 Z" transform="translate(188.504, 214.016)"/>
   <path style="fill:#161413; fill-rule:evenodd;stroke:#161413; stroke-width:1; stroke-linecap:butt; stroke-linejoin:miter; stroke-dasharray:none;" d="M2.83465 1.41732 C2.83465 2.20012 2.20012 2.83465 1.41732 2.83465 C0.634557 2.83465 0 2.20012 0 1.41732 C0 0.634557 0.634557 0 1.41732 0 C2.20012 0 2.83465 0.634557 2.83465 1.41732 Z" transform="translate(194.173, 214.016)"/>
   <path style="fill:#161413; fill-rule:evenodd;stroke:#161413; stroke-width:1; stroke-linecap:butt; stroke-linejoin:miter; stroke-dasharray:none;" d="M2.83465 1.41732 C2.83465 2.20012 2.20012 2.83465 1.41732 2.83465 C0.634557 2.83465 0 2.20012 0 1.41732 C0 0.634557 0.634557 0 1.41732 0 C2.20012 0 2.83465 0.634557 2.83465 1.41732 Z" transform="translate(188.504, 225.354)"/>
  </g>
  <g transform="translate(177.416, 276.62) rotate(-140)">
   <use style="fill:#161413;stroke:none;" xlink:href="#GlArialMT45" transform="matrix(-0.139955 1.20389 -0.595986 -0.0692847 125.037 63.5259)"/>
   <use style="fill:#161413;stroke:none;" xlink:href="#GlArial-BoldMT72" transform="matrix(-0.584577 1.0617 -0.525596 -0.289395 119.871 85.8137)"/>
   <use style="fill:#161413;stroke:none;" xlink:href="#GlArial-BoldMT65" transform="matrix(-0.835386 0.878108 -0.434707 -0.413557 111.164 100.321)"/>
   <use style="fill:#161413;stroke:none;" xlink:href="#GlArial-BoldMT85" transform="matrix(-1.03095 0.637251 -0.315471 -0.510371 99.0643 112.135)"/>
   <use style="fill:#161413;stroke:none;" xlink:href="#GlArial-BoldMT77" transform="matrix(-1.16373 0.338646 -0.167647 -0.576103 84.2996 120.581)"/>
   <use style="fill:#161413;stroke:none;" xlink:href="#GlArialMT45" transform="matrix(-1.20443 -0.135257 0.0669587 -0.596252 55.7858 125.052)"/>
   <use style="fill:#161413;stroke:none;" xlink:href="#GlArialMT72" transform="matrix(-1.06394 -0.580505 0.287379 -0.526701 33.4728 119.971)"/>
   <use style="fill:#161413;stroke:none;" xlink:href="#GlArialMT97" transform="matrix(-0.895244 -0.816996 0.404453 -0.44319 19.0761 111.325)"/>
   <use style="fill:#161413;stroke:none;" xlink:href="#GlArialMT99" transform="matrix(-0.698289 -0.990624 0.490408 -0.345688 8.63137 101.067)"/>
   <use style="fill:#161413;stroke:none;" xlink:href="#GlArialMT107" transform="matrix(-0.472776 -1.11599 0.552469 -0.234048 0.992102 89.3799)"/>
   <use style="fill:#161413;stroke:none;" xlink:href="#GlArialMT101" transform="matrix(-0.217897 -1.19225 0.590224 -0.10787 -4.02765 76.3163)"/>
   <use style="fill:#161413;stroke:none;" xlink:href="#GlArialMT114" transform="matrix(0.0226648 -1.21179 0.599895 0.0112202 -6.05694 61.9476)"/>
   <use style="fill:#161413;stroke:none;" xlink:href="#GlArialMT115" transform="matrix(0.257049 -1.18443 0.586351 0.127252 -5.5018 50.1445)"/>
   <use style="fill:#161413;stroke:none;" xlink:href="#GlArialMT112" transform="matrix(0.509254 -1.09982 0.544465 0.252106 -2.07327 36.5785)"/>
   <use style="fill:#161413;stroke:none;" xlink:href="#GlArialMT97" transform="matrix(0.740858 -0.959205 0.474854 0.366761 4.57061 23.4776)"/>
   <use style="fill:#161413;stroke:none;" xlink:href="#GlArialMT99" transform="matrix(0.929913 -0.777307 0.384806 0.460353 13.9344 12.2314)"/>
   <use style="fill:#161413;stroke:none;" xlink:href="#GlArialMT101" transform="matrix(1.07621 -0.557414 0.275947 0.532779 24.9709 3.61666)"/>
   <use style="fill:#161413;stroke:none;" xlink:href="#GlArialMT97" transform="matrix(1.20763 -0.10281 0.0508959 0.597837 48.8996 -5.33568)"/>
   <use style="fill:#161413;stroke:none;" xlink:href="#GlArialMT117" transform="matrix(1.2007 0.165144 -0.0817542 0.594404 63.5584 -6.0698)"/>
   <use style="fill:#161413;stroke:none;" xlink:href="#GlArialMT77" transform="matrix(1.02776 0.642384 -0.318012 0.508791 88.5353 0.374286)"/>
   <use style="fill:#161413;stroke:none;" xlink:href="#GlArialMT97" transform="matrix(0.836075 0.877452 -0.434382 0.413899 103.511 10.6961)"/>
   <use style="fill:#161413;stroke:none;" xlink:href="#GlArialMT110" transform="matrix(0.62086 1.0409 -0.515298 0.307356 113.269 21.6919)"/>
   <use style="fill:#161413;stroke:none;" xlink:href="#GlArialMT115" transform="matrix(0.379542 1.15104 -0.569821 0.187892 120.306 34.5476)"/>
  </g>
 </g>
</svg>
