<?xml version="1.0" encoding="UTF-8" standalone="no"?>
<!-- Created with Inkscape (http://www.inkscape.org/) -->

<svg
   xmlns:dc="http://purl.org/dc/elements/1.1/"
   xmlns:cc="http://creativecommons.org/ns#"
   xmlns:rdf="http://www.w3.org/1999/02/22-rdf-syntax-ns#"
   xmlns:svg="http://www.w3.org/2000/svg"
   xmlns="http://www.w3.org/2000/svg"
   xmlns:sodipodi="http://sodipodi.sourceforge.net/DTD/sodipodi-0.dtd"
   xmlns:inkscape="http://www.inkscape.org/namespaces/inkscape"
   id="svg3200"
   version="1.1"
   inkscape:version="0.48.4 r9939"
   width="750"
   height="400"
   sodipodi:docname="LogoStencil.png">
  <metadata
     id="metadata3206">
    <rdf:RDF>
      <cc:Work
         rdf:about="">
        <dc:format>image/svg+xml</dc:format>
        <dc:type
           rdf:resource="http://purl.org/dc/dcmitype/StillImage" />
        <dc:title></dc:title>
      </cc:Work>
    </rdf:RDF>
  </metadata>
  <defs
     id="defs3204" />
  <sodipodi:namedview
     pagecolor="#ffffff"
     bordercolor="#666666"
     borderopacity="1"
     objecttolerance="10"
     gridtolerance="10"
     guidetolerance="10"
     inkscape:pageopacity="0"
     inkscape:pageshadow="2"
     inkscape:window-width="1022"
     inkscape:window-height="598"
     id="namedview3202"
     showgrid="false"
     inkscape:zoom="0.82590072"
     inkscape:cx="433.89196"
     inkscape:cy="183.33703"
     inkscape:window-x="0"
     inkscape:window-y="0"
     inkscape:window-maximized="0"
     inkscape:current-layer="svg3200" />
  <path
     style="fill:#000000"
     d="m 453.28767,350.81506 0,-10.5 8.5,0 8.5,0 0,10.5 0,10.5 -8.5,0 -8.5,0 0,-10.5 z m 53.32423,8.86246 c -2.29668,-0.8138 -6.20891,-3.26928 -8.69385,-5.45661 -9.41258,-8.28529 -13.00756,-22.07175 -13.0135,-49.90584 -0.006,-27.8331 3.16677,-41.89084 11.27906,-49.9755 4.92472,-4.90794 12.49375,-9.0245 16.59316,-9.0245 2.48394,0 2.5109,0.0911 2.5109,8.48581 l 0,8.48581 -3.82198,2.52927 c -7.23229,4.7861 -9.24243,13.35141 -9.22594,39.31214 0.0152,23.92209 1.76578,31.71368 8.14597,36.25678 4.82962,3.43899 6.22651,7.79205 4.81035,14.99023 -1.29705,6.5928 -1.63803,6.76371 -8.58417,4.30241 z m 15.67577,-6.68528 0,-8.58293 4.08508,-3.28286 c 2.24679,-1.80557 4.68022,-4.70725 5.40762,-6.44817 4.7221,-11.30155 4.69171,-54.30456 -0.0448,-63.46405 -0.7632,-1.47588 -3.20119,-4.11977 -5.41775,-5.87532 l -4.0301,-3.1919 0,-8.41597 c -5e-5,-7.91716 0.12603,-8.41597 2.12724,-8.41597 1.17,0 5.05795,1.44276 8.63987,3.20614 13.96299,6.87396 19.67399,22.30084 19.54417,52.79386 -0.0987,23.18034 -4.13476,40.05931 -12.05421,50.41102 -5.03876,6.58629 -8.14319,8.70909 -13.64288,9.32898 l -4.61424,0.52009 0,-8.58292 z m 42,-40.02355 c 0,-26.5905 0.29238,-52.4655 0.64974,-57.5 l 0.64975,-9.15362 7.85025,0 7.85026,0 0,57.5 0,57.49999 -8.5,0 -8.5,0 0,-48.34637 z m 36.49057,24.07408 c -7.82993,-21.05585 -9.30276,-24.26954 -11.25,-24.54725 -2.09835,-0.29927 -2.24069,-0.80706 -2.24239,-8 l -0.002,-7.68045 5.75182,0.29026 c 6.48468,0.32725 10.82084,-1.67729 13.94749,-6.44771 2.5244,-3.85156 2.51102,-16.42214 -0.0229,-21.5152 -2.1984,-4.41867 -3.11987,-4.83057 -12.42276,-5.55301 l -7.25,-0.56302 0,-7.82047 c 1.7e-4,-9.39466 0.54297,-9.89085 10.82024,-9.89085 12.4109,0 21.2641,6.66346 26.1972,19.71769 2.8714,7.5987 3.1241,20.45699 0.5556,28.28231 -1.7635,5.37278 -7.1417,14.96704 -8.4271,15.03327 -0.3552,0.0183 -1.648,0.86963 -2.873,1.89184 l -2.2272,1.85857 2.3677,6.85816 c 1.3022,3.77199 5.3419,14.3403 8.9772,23.48514 3.6352,9.14485 6.6095,17.13235 6.6095,17.75 0,0.75542 -3.1914,1.11572 -9.75,1.10072 l -9.75,-0.0223 -9.0094,-24.22772 z m 62.6575,22.37123 c -2.9435,-1.02333 -6.5435,-2.74539 -8,-3.82679 -4.0264,-2.98957 -7.8575,-11.6298 -10.319,-23.27215 -1.9028,-8.99932 -2.2278,-13.71571 -2.2746,-32.99999 -0.058,-24.15919 0.7866,-30.7534 5.0133,-39.11974 1.2836,-2.54086 3.8185,-5.87318 5.6331,-7.40517 4.2687,-3.604 12.5431,-7.45287 16.0491,-7.46532 l 2.75,-0.01 0,8.41844 0,8.41844 -3.5311,2.18233 c -7.2032,4.45184 -9.4827,14.41679 -9.448,41.30315 0.031,23.71964 2.0984,31.45538 9.5899,35.87549 l 3.4636,2.04356 -0.2872,8.61804 c -0.3314,9.94654 -0.4842,10.07454 -8.6391,7.23948 z m 14.8519,-7.01678 c 0,-7.84337 0.2491,-9.21943 1.75,-9.6684 4.5942,-1.37422 6.9321,-3.29259 9,-7.38495 1.8462,-3.65336 2.25,-6.09885 2.25,-13.62406 0,-10.47175 0.1,-10.36547 -9.75,-10.39109 l -5.25,-0.0136 0,-7.5 0,-7.5 16,0 16,0 -0.017,15.75 c -0.025,22.82332 -2.8231,34.02382 -10.3895,41.59025 -4.1514,4.15142 -8.4707,6.21893 -15.0549,7.20627 l -4.5382,0.68056 0,-9.14493 z m -420.99997,-99.08215 0,-29 -13,0 c -7.15,0 -13,-0.37061 -13,-0.82358 0,-0.45297 2.40593,-6.19047 5.34652,-12.75 l 5.34652,-11.92642 38.15348,-0.26188 c 20.98441,-0.14404 38.15348,-0.48354 38.15348,-0.75445 0,-1.77334 -44.15245,-88.3282 -45.27722,-88.75982 -3.09858,-1.18903 -1.11576,-5.18169 -43.21875,87.02615 l -12.89923,28.25 -15.3024,0 c -8.41632,0 -15.3024,-0.14238 -15.3024,-0.3164 0,-0.17401 14.35986,-29.87401 31.9108,-66 l 31.9108,-65.683605 -28.9108,0 -28.9108,0 0,-14.5 0,-14.5 32.5,0 32.5,0 0,-26.5 0,-26.5 15.5,0 15.5,0 0,26.5 0,26.5 33,0 33,0 0,14.5 0,14.5 -28.41776,0 -28.41775,0 32.33551,66.000005 32.33551,66 -36.91775,0 -36.91776,0 0,29 0,29 -15.5,0 -15.5,0 0,-29 z m 433.99997,25.40113 c 0,-4.2737 -2.9891,-9.27293 -8.1428,-13.6186 l -4.8572,-4.0956 0,-7.97939 0,-7.97939 4.5032,0.61723 c 12.233,1.67672 20.7889,11.10648 24.0539,26.51064 2.0683,9.75806 2.5422,9.14398 -7.0571,9.14398 -8.4862,0 -8.5,-0.004 -8.5,-2.59887 z M 420.82659,227.20272 c -26.93821,-3.92459 -43.29775,-18.36378 -49.19054,-43.41634 -2.26014,-9.60873 -3.32906,-113.234275 -1.18208,-114.595255 0.73353,-0.46499 9.97137,-0.85232 20.52852,-0.86074 l 19.19482,-0.0153 0.34537,54.249995 c 0.37775,59.33745 0.50948,60.72761 6.41991,67.75175 2.64959,3.14886 11.0238,7.99826 13.81184,7.99826 1.30951,0 1.53324,2.18879 1.53324,15 l 0,15 -2.75,-0.12194 c -1.5125,-0.0671 -5.43249,-0.51275 -8.71108,-0.99041 z m 18.46108,-13.77636 0,-14.88871 3.67512,-0.68945 c 10.2022,-1.91395 15.96988,-6.70189 18.99576,-15.76904 1.55903,-4.6717 1.81707,-11.34094 2.29292,-59.2641 l 0.5362,-53.999995 20.33132,-0.27096 20.33132,-0.27097 -0.40323,54.770965 c -0.38331,52.06384 -0.50819,55.15138 -2.52674,62.46752 -3.14802,11.40987 -6.75992,18.2249 -13.44845,25.37497 -8.75467,9.35877 -18.72066,13.73967 -37.28422,16.38962 -3.85,0.54958 -8.2375,1.00816 -9.75,1.01905 l -2.75,0.0198 0,-14.88871 z m 104.46338,10.82945 c -0.36007,-0.58259 -0.50443,-35.91693 -0.32082,-78.52076 l 0.33384,-77.461495 19.0118,0.27075 19.0118,0.27076 0.25609,78.250005 0.2561,78.25 -18.94708,0 c -12.25935,0 -19.17815,-0.37389 -19.60173,-1.05926 z m 136.00559,-0.19074 c -0.2575,-0.6875 -0.5809,-21.65494 -0.7186,-46.59432 l -0.2504,-45.34431 -10.4161,23.84431 c -5.7289,13.11438 -12.8201,28.68182 -15.7584,34.59432 l -5.3422,10.75 -16.8983,0 -16.8983,0 -3.041,-7.3047 c -1.67251,-4.01759 -7.11983,-16.63907 -12.10514,-28.04775 l -9.0642,-20.74305 0.26183,-38.11177 0.26184,-38.111755 11.8643,27.40951 c 12.71547,29.375925 29.52227,64.909515 30.70117,64.909515 0.3956,0 9.6553,-20.91555 20.5769,-46.479 l 19.8576,-46.478985 13.5964,-0.021 c 7.478,-0.0115 17.7155,0.27137 22.75,0.62873 l 9.1536,0.64975 0,77.850255 0,77.85026 -19.0313,0 c -14.3088,0 -19.1476,-0.31019 -19.4997,-1.25 z m -650.468969,-77.61916 0,-77.869155 3.75,-0.61984 c 2.0625,-0.34091 11.2875,-0.62479 20.5,-0.63084 l 16.75,-0.011 0,78.500005 0,78.5 -20.5,0 -20.5,0 0,-77.86916 z m 99.999999,44.86916 0,-33 -26,0 -25.999999,0 0,-15.5 0,-15.50001 25.999999,0 26,0 0,-29.369155 0,-29.36915 3.75,-0.61984 c 2.0625,-0.34091 11.2875,-0.62479 20.5,-0.63084 l 16.75,-0.011 0,78.500005 0,78.5 -20.5,0 -20.5,0 0,-33 z"
     id="path3210"
     inkscape:connector-curvature="0" />
</svg>
