<?xml version="1.0" encoding="UTF-8" standalone="no"?>
<!-- Created with Inkscape (http://www.inkscape.org/) -->

<svg
   xmlns:dc="http://purl.org/dc/elements/1.1/"
   xmlns:cc="http://creativecommons.org/ns#"
   xmlns:rdf="http://www.w3.org/1999/02/22-rdf-syntax-ns#"
   xmlns:svg="http://www.w3.org/2000/svg"
   xmlns="http://www.w3.org/2000/svg"
   xmlns:sodipodi="http://sodipodi.sourceforge.net/DTD/sodipodi-0.dtd"
   xmlns:inkscape="http://www.inkscape.org/namespaces/inkscape"
   width="969.71301"
   height="267.68756"
   id="svg2"
   version="1.1"
   inkscape:version="0.48.3.1 r9886"
   sodipodi:docname="logo.svg"
   inkscape:export-filename="/home/matael/workspace/hackerspace/logo/logo.png"
   inkscape:export-xdpi="90"
   inkscape:export-ydpi="90">
  <defs
     id="defs4" />
  <sodipodi:namedview
     id="base"
     pagecolor="#ffffff"
     bordercolor="#666666"
     borderopacity="1.0"
     inkscape:pageopacity="0.0"
     inkscape:pageshadow="2"
     inkscape:zoom="0.98994949"
     inkscape:cx="524.00873"
     inkscape:cy="117.25662"
     inkscape:document-units="px"
     inkscape:current-layer="layer1"
     showgrid="false"
     showguides="true"
     inkscape:guide-bbox="true"
     inkscape:snap-global="false"
     inkscape:snap-bbox="false"
     inkscape:window-width="1054"
     inkscape:window-height="781"
     inkscape:window-x="24"
     inkscape:window-y="25"
     inkscape:window-maximized="0"
     fit-margin-top="0"
     fit-margin-left="0"
     fit-margin-right="0"
     fit-margin-bottom="0" />
  <metadata
     id="metadata7">
    <rdf:RDF>
      <cc:Work
         rdf:about="">
        <dc:format>image/svg+xml</dc:format>
        <dc:type
           rdf:resource="http://purl.org/dc/dcmitype/StillImage" />
        <dc:title></dc:title>
      </cc:Work>
    </rdf:RDF>
  </metadata>
  <g
     inkscape:label="Calque 1"
     inkscape:groupmode="layer"
     id="layer1"
     transform="translate(107.25941,-768.53125)">
    <g
       id="g3031">
      <g
         id="g2999">
        <g
           id="g2995">
          <g
             id="text2985"
             style="font-size:214.69970703px;font-style:normal;font-weight:bold;line-height:125%;letter-spacing:0px;word-spacing:0px;fill:#1c1c1c;fill-opacity:1;stroke:none;font-family:Sans;-inkscape-font-specification:Sans Bold">
            <path
               id="path3021"
               d="m -8.0866008,990.78101 0,23.58759 -22.7489432,0 c -15.23594,0 -26.348316,-3.0751 -33.337162,-9.2253 -6.988986,-6.15032 -10.483443,-15.96975 -10.483384,-29.45836 l 0,-20.1281 c -5.9e-5,-10.48335 -1.887067,-17.75182 -5.661027,-21.80543 -3.774069,-4.12342 -10.623206,-6.18515 -20.547433,-6.1852 l -6.39486,0 0,-23.37795 6.39486,0 c 9.924227,8e-5 16.773364,-2.02671 20.547433,-6.08036 3.77396,-4.05349 5.660968,-11.32196 5.661027,-21.80544 l 0,-21.49094 c -5.9e-5,-13.48848 3.494398,-23.27296 10.483384,-29.35347 6.988846,-6.1501 18.101222,-9.22522 33.337162,-9.22538 l 22.7489432,0 0,23.58761 -7.2335352,0 c -9.85449,1.4e-4 -16.284292,1.5377 -19.289427,4.61269 -2.935444,3.00537 -4.403116,9.47012 -4.403021,19.39426 l 0,17.40242 c -9.5e-5,10.9727 -1.572601,18.94006 -4.717523,23.90212 -3.145102,4.9622 -8.561512,8.31688 -16.249245,10.06405 7.757622,1.88707 13.174032,5.31164 16.249245,10.27371 3.144922,4.96219 4.717428,12.89461 4.717523,23.79728 l 0,17.40242 c -9.5e-5,9.99416 1.467577,16.49386 4.403021,19.4991 3.005135,3.07511 9.434937,4.61267 19.289427,4.61268 l 7.2335352,0"
               inkscape:connector-curvature="0" />
            <path
               id="path3023"
               d="m 38.669288,822.8372 40.361029,0 0,59.65046 59.545623,0 0,-59.65046 40.36103,0 0,156.51693 -40.36103,0 0,-66.35983 -59.545623,0 0,66.35983 -40.361029,0 0,-156.51693"
               inkscape:connector-curvature="0" />
            <path
               id="path3025"
               d="m 367.84754,822.8372 40.36103,0 0,93.82629 c -6e-5,12.92956 2.09661,22.18987 6.29003,27.78097 4.26317,5.52128 11.1822,8.2819 20.7571,8.28187 9.64462,3e-5 16.56364,-2.76059 20.7571,-8.28187 4.26313,-5.5911 6.39475,-14.85141 6.39487,-27.78097 l 0,-93.82629 40.36102,0 0,93.82629 c -1.5e-4,22.15492 -5.55634,38.64877 -16.66858,49.48157 -11.11251,10.83283 -28.06063,16.24924 -50.84441,16.24925 -22.71406,-10e-6 -39.62724,-5.41642 -50.73958,-16.24925 -11.11241,-10.8328 -16.6686,-27.32665 -16.66858,-49.48157 l 0,-93.82629"
               inkscape:connector-curvature="0" />
            <path
               id="path3027"
               d="m 542.29108,822.8372 51.36859,0 35.6435,83.76224 35.85318,-83.76224 51.26374,0 0,156.51693 -38.15951,0 0,-114.47856 -36.06285,84.39124 -25.57945,0 -36.06284,-84.39124 0,114.47856 -38.26436,0 0,-156.51693"
               inkscape:connector-curvature="0" />
            <path
               id="path3029"
               d="m 763.28081,990.78101 7.33837,0 c 9.78444,-1e-5 16.14436,-1.53757 19.07976,-4.61268 3.00518,-3.00524 4.50779,-9.50494 4.50785,-19.4991 l 0,-17.40242 c -6e-5,-10.90267 1.57245,-18.83509 4.71752,-23.79728 3.14495,-4.96207 8.59631,-8.38664 16.35408,-10.27371 -7.75777,-1.74717 -13.20913,-5.10185 -16.35408,-10.06405 -3.14507,-4.96206 -4.71758,-12.92942 -4.71752,-23.90212 l 0,-17.40242 c -6e-5,-9.92414 -1.50267,-16.38889 -4.50785,-19.39426 -2.9354,-3.07499 -9.29532,-4.61255 -19.07976,-4.61269 l -7.33837,0 0,-23.58761 22.74894,0 c 15.23579,1.6e-4 26.34816,3.07528 33.33716,9.22538 6.98884,6.08051 10.48329,15.86499 10.48339,29.35347 l 0,21.49094 c -10e-5,10.48348 1.88691,17.75195 5.66102,21.80544 3.77392,4.05365 10.62306,6.08044 20.54744,6.08036 l 6.39486,0 0,23.37795 -6.39486,0 c -9.92438,5e-5 -16.77352,2.06178 -20.54744,6.1852 -3.77411,4.05361 -5.66112,11.32208 -5.66102,21.80543 l 0,20.1281 c -10e-5,13.48861 -3.49455,23.30804 -10.48339,29.45836 -6.989,6.1502 -18.10137,9.2253 -33.33716,9.2253 l -22.74894,0 0,-23.58759"
               inkscape:connector-curvature="0" />
          </g>
        </g>
      </g>
      <path
         inkscape:connector-curvature="0"
         id="path3767"
         d="M 272.3125,811.59375 260.96875,836.125 203.75,960.03125 l -8.28125,17.875 19.71875,0 115.40625,0 19.84375,0 L 342,959.96875 283.8125,836.0625 l -11.5,-24.46875 z M 272.5,871.25 l 38.28125,81.46875 -75.9375,0 L 272.5,871.25 z"
         style="font-size:medium;font-style:normal;font-variant:normal;font-weight:normal;font-stretch:normal;text-indent:0;text-align:start;text-decoration:none;line-height:normal;letter-spacing:normal;word-spacing:normal;text-transform:none;direction:ltr;block-progression:tb;writing-mode:lr-tb;text-anchor:start;baseline-shift:baseline;color:#000000;fill:#1c1c1c;fill-opacity:1;stroke:none;stroke-width:25.18751526;marker:none;visibility:visible;display:inline;overflow:visible;enable-background:accumulate;font-family:Sans;-inkscape-font-specification:Sans" />
      <path
         inkscape:connector-curvature="0"
         id="path3781"
         d="m 259.875,768.53125 0,107.0625 24,0 0,-107.0625 -24,0 z"
         style="font-size:medium;font-style:normal;font-variant:normal;font-weight:normal;font-stretch:normal;text-indent:0;text-align:start;text-decoration:none;line-height:normal;letter-spacing:normal;word-spacing:normal;text-transform:none;direction:ltr;block-progression:tb;writing-mode:lr-tb;text-anchor:start;baseline-shift:baseline;color:#000000;fill:#1c1c1c;fill-opacity:1;stroke:none;stroke-width:24;marker:none;visibility:visible;display:inline;overflow:visible;enable-background:accumulate;font-family:Sans;-inkscape-font-specification:Sans" />
      <path
         inkscape:connector-curvature="0"
         id="path3783"
         d="m 259.875,966.5 0,69.7188 24,0 0,-69.7188 -24,0 z"
         style="font-size:medium;font-style:normal;font-variant:normal;font-weight:normal;font-stretch:normal;text-indent:0;text-align:start;text-decoration:none;line-height:normal;letter-spacing:normal;word-spacing:normal;text-transform:none;direction:ltr;block-progression:tb;writing-mode:lr-tb;text-anchor:start;baseline-shift:baseline;color:#000000;fill:#1c1c1c;fill-opacity:1;stroke:none;stroke-width:24;marker:none;visibility:visible;display:inline;overflow:visible;enable-background:accumulate;font-family:Sans;-inkscape-font-specification:Sans" />
      <path
         inkscape:connector-curvature="0"
         id="path3789"
         d="m 194.09375,822.0625 0,24 155.5625,0 0,-24 -155.5625,0 z"
         style="font-size:medium;font-style:normal;font-variant:normal;font-weight:normal;font-stretch:normal;text-indent:0;text-align:start;text-decoration:none;line-height:normal;letter-spacing:normal;word-spacing:normal;text-transform:none;direction:ltr;block-progression:tb;writing-mode:lr-tb;text-anchor:start;baseline-shift:baseline;color:#000000;fill:#1c1c1c;fill-opacity:1;stroke:none;stroke-width:24;marker:none;visibility:visible;display:inline;overflow:visible;enable-background:accumulate;font-family:Sans;-inkscape-font-specification:Sans" />
    </g>
  </g>
</svg>
